<svg width="397" height="258" viewBox="0 0 397 258" fill="none" xmlns="http://www.w3.org/2000/svg">
<path d="M129.79 116.72L88.85 56.72L23.64 104.5L0 72.23L98.58 0L139.52 60.01L221.24 0.13L262.31 58.98L344.37 0.18L396.85 77.09L363.81 99.64L334.4 56.53L252.68 115.09L211.86 56.59L129.79 116.72Z" fill="#FFFFFF"/>
<path d="M129.79 257.67L88.85 197.66L23.64 245.44L0 213.18L98.58 140.94L139.52 200.95L221.24 141.07L262.31 199.93L344.37 141.13L396.85 218.04L363.81 240.58L334.4 197.48L252.68 256.04L211.86 197.53L129.79 257.67Z" fill="#FFFFFF"/>
</svg>
