<svg width="400" height="400" viewBox="0 0 400 400" fill="none" xmlns="http://www.w3.org/2000/svg">
<path d="M398.837 107.357C397.277 131.484 388.756 154.642 374.307 174.027L342.417 149.887C352.169 136.745 357.904 121.059 358.927 104.727C359.152 101.137 359.152 97.5367 358.927 93.9469C357.307 66.2969 338.647 43.2469 315.527 40.3469C311.321 39.7618 307.04 40.0064 302.927 41.0669C278.807 47.4069 256.267 84.7469 241.097 143.497C226.997 198.227 219.657 268.127 219.557 347.787C219.557 349.447 219.557 351.117 219.557 352.787C219.557 367.987 219.227 384.157 218.677 399.957H199.557H180.497C179.947 384.157 179.597 367.957 179.557 352.757C179.557 351.087 179.557 349.417 179.557 347.757C179.447 268.097 172.107 198.197 157.967 143.467C142.797 84.7169 120.257 47.3769 96.1375 41.0369C92.0248 39.9764 87.7442 39.7318 83.5375 40.3169C60.4175 43.2169 41.7575 66.3169 40.1375 93.9169C39.9175 97.5068 39.9175 101.107 40.1375 104.697C41.1633 121.029 46.8977 136.714 56.6475 149.857L24.8075 174.027C7.18645 150.297 -1.519 121.122 0.217462 91.6169C2.98746 44.2669 35.9375 6.01687 78.5675 0.61687C87.8454 -0.598416 97.2705 -0.0144346 106.327 2.33687C127.477 7.90687 146.207 23.1569 162.007 47.6769C175.907 69.2469 187.577 98.1069 196.707 133.457C197.687 137.257 198.637 141.124 199.557 145.057C200.477 141.13 201.427 137.264 202.407 133.457C211.537 98.1069 223.207 69.2469 237.107 47.6769C252.907 23.1569 271.637 7.90687 292.787 2.33687C301.85 -0.000869274 311.279 -0.571257 320.557 0.65687C363.177 6.01687 396.127 44.2669 398.897 91.6569C399.206 96.8863 399.186 102.13 398.837 107.357Z" fill="#FFFFFF"/>
</svg>
