<svg width="400" height="400" viewBox="0 0 400 400" fill="none" xmlns="http://www.w3.org/2000/svg">
<path d="M350.11 61.33C323.85 37.14 292.46 19.85 256.8 9.96001C236.276 4.25712 215.1 1.23204 193.8 0.960011C125.51 0.320011 67.95 23.02 31.69 64.75C29.77 66.95 27.9134 69.2067 26.12 71.52C9.27526 89.9359 -0.0458197 114.002 4.63975e-05 138.96C4.63975e-05 193.96 44.29 238.61 98.93 238.61C153.57 238.61 197.87 194 197.87 138.96C197.905 119.439 192.208 100.337 181.485 84.025C170.762 67.7128 155.485 54.9081 137.55 47.2C155.839 42.789 174.609 40.6926 193.42 40.96C216.42 41.16 274.93 46.41 323.01 90.71C339.806 106.243 353.605 124.73 363.72 145.25L399.54 127.45C387.253 102.568 370.498 80.1556 350.11 61.33V61.33ZM158.15 138.96C158.15 171.85 131.59 198.61 98.93 198.61C66.27 198.61 39.71 171.87 39.71 138.96C39.7041 131.112 41.2457 123.34 44.2469 116.088C47.248 108.837 51.6497 102.248 57.2 96.7C62.6639 91.1915 69.1645 86.8196 76.3269 83.8366C83.4892 80.8535 91.1713 79.3185 98.93 79.32C131.59 79.34 158.15 106.1 158.15 138.96Z" fill="#FFFFFF"/>
<path d="M301.07 162.31C246.43 162.31 202.13 206.93 202.13 261.96C202.096 281.478 207.791 300.577 218.51 316.889C229.229 333.2 244.5 346.007 262.43 353.72C244.148 358.13 225.384 360.227 206.58 359.96C183.63 359.76 125.07 354.52 76.99 310.22C60.192 294.681 46.3928 276.187 36.28 255.66L0.459961 273.46C12.7493 298.352 29.5036 320.777 49.89 339.62C76.15 363.81 107.54 381.09 143.2 390.98C163.725 396.678 184.9 399.703 206.2 399.98H208.8C275.94 399.98 332.52 377.37 368.31 336.18C370.23 333.973 372.087 331.713 373.88 329.4C390.726 310.985 400.048 286.918 400 261.96C400 206.96 355.71 162.31 301.07 162.31ZM241.85 261.96C241.85 229.07 268.41 202.31 301.07 202.31C333.73 202.31 360.29 229.07 360.29 261.96C360.297 269.817 358.753 277.598 355.747 284.857C352.74 292.115 348.33 298.709 342.77 304.26C337.307 309.759 330.81 314.122 323.653 317.1C316.496 320.078 308.821 321.61 301.07 321.61C268.41 321.61 241.85 294.85 241.85 261.96Z" fill="#FFFFFF"/>
</svg>
