<svg width="394" height="399" viewBox="0 0 394 399" fill="none" xmlns="http://www.w3.org/2000/svg">
<path d="M286.74 133.23C262.384 133.191 238.756 141.531 219.82 156.85V84.85C219.832 67.4569 214.494 50.4808 204.531 36.2239C194.568 21.9669 180.462 11.1188 164.125 5.15052C147.788 -0.817746 130.01 -1.61741 113.203 2.85997C96.3962 7.33734 81.3728 16.8751 70.17 30.18C62.2203 20.7242 52.2975 13.1227 41.0979 7.909C29.8984 2.69534 17.6936 -0.00414121 5.34 4.76844e-06C3.55 4.76844e-06 1.77 0.0600068 0 0.170007V40.32C6.29298 39.5634 12.6749 40.1502 18.7244 42.0416C24.7739 43.9329 30.3535 47.0859 35.0948 51.2923C39.8362 55.4987 43.6314 60.6629 46.23 66.4441C48.8286 72.2252 50.1715 78.4917 50.17 84.83V214.48H90.17V84.83C90.0812 78.8872 91.1751 72.986 93.3879 67.4698C95.6007 61.9536 98.8884 56.9324 103.06 52.6985C107.231 48.4645 112.202 45.1023 117.685 42.8073C123.167 40.5123 129.051 39.3305 134.995 39.3305C140.938 39.3305 146.823 40.5123 152.305 42.8073C157.788 45.1023 162.759 48.4645 166.93 52.6985C171.102 56.9324 174.389 61.9536 176.602 67.4698C178.815 72.986 179.909 78.8872 179.82 84.83V212.08H179.72C180.19 225.48 180.27 294.44 135.35 335.73C122.95 347.14 108.069 355.513 91.88 360.19L103.11 398.58C125.198 392.192 145.498 380.758 162.41 365.18C181.6 347.54 194.46 326.69 203.04 305.94C214.231 320.12 228.842 331.225 245.501 338.212C262.16 345.199 280.321 347.839 298.279 345.884C316.238 343.929 333.405 337.444 348.171 327.038C362.937 316.631 374.816 302.643 382.695 286.387C390.574 270.131 394.194 252.14 393.215 234.102C392.237 216.064 386.691 198.57 377.099 183.262C367.507 167.955 354.184 155.335 338.378 146.587C322.573 137.839 304.805 133.25 286.74 133.25V133.23ZM286.74 306.49C273.562 306.49 260.68 302.582 249.722 295.261C238.765 287.939 230.225 277.533 225.182 265.358C220.139 253.183 218.819 239.786 221.39 226.861C223.961 213.936 230.307 202.064 239.625 192.745C248.944 183.427 260.816 177.081 273.741 174.51C286.666 171.939 300.063 173.259 312.238 178.302C324.413 183.345 334.819 191.885 342.141 202.842C349.462 213.8 353.37 226.682 353.37 239.86C353.349 257.525 346.322 274.46 333.831 286.951C321.34 299.442 304.405 306.469 286.74 306.49V306.49Z" fill="#FFFFFF"/>
</svg>
