<svg width="399" height="400" viewBox="0 0 399 400" fill="none" xmlns="http://www.w3.org/2000/svg">
<path d="M343.99 345.4C329.51 359.21 310.62 359.3 306.99 359.18H306.36C301.36 359.18 284.13 358.08 270.94 344.59C263.03 336.364 258.482 325.478 258.19 314.07C258.74 303.98 261.47 295.3 266.3 288.26C271.13 281.22 276.3 278.12 291.84 269.46C297.24 266.46 303.36 263.03 310.61 258.72C340.71 240.82 355.82 231.84 367.95 217.72C395.79 185.39 398.23 147.46 398.31 136.61C398.56 104.46 385.85 72.76 362.52 47.36C352.84 36.82 316.85 2.35998 259.85 0.999977C244.61 0.649977 191.85 2.76998 152.46 45.07C151.04 46.59 117.66 83.07 117.03 136.21C116.788 144.917 117.536 153.622 119.26 162.16C112.702 160.897 106.038 160.267 99.36 160.28C44.48 160.28 0 203.08 0 255.87C0 308.66 44.48 351.46 99.36 351.46C100.23 351.46 101.1 351.46 101.96 351.46C104.96 351.38 108.01 351.18 110.96 350.84C156.03 345.84 191.89 311.71 197.81 268.54C198.566 264.824 199.077 261.063 199.34 257.28C201.04 230.83 189.74 210.69 180.66 194.5C177.108 188.173 173.142 182.086 168.79 176.28C164.65 170.62 162.57 167.78 160.34 161.09C157.811 153.218 156.69 144.961 157.03 136.7C157.48 99.78 181.03 73.1 181.8 72.27C210.54 41.46 251.06 40.81 258.92 41C300.13 42 326.09 66.83 333.07 74.42C344.71 87.1 358.54 108.13 358.32 136.31C358.32 141.59 357.1 169.05 337.65 191.63C329.78 200.76 316.55 208.63 290.18 224.31C283.41 228.31 277.55 231.6 272.37 234.49C255.73 243.77 243.7 250.49 233.37 265.6C224.18 278.99 219.1 294.83 218.26 312.68V313.17V313.66C218.435 335.66 227.085 356.745 242.41 372.53C266.2 396.86 296.71 399.08 306.02 399.14C306.63 399.14 307.34 399.14 308.13 399.14C319.48 399.14 348.2 396.69 371.68 374.29C388.18 358.495 397.776 336.823 398.38 313.99L358.38 313.17C357.953 325.375 352.792 336.934 343.99 345.4V345.4ZM158.99 255.87C158.99 257.1 158.99 258.31 158.87 259.52C156.87 289.45 130.98 313.22 99.37 313.22H97.81C65.65 312.4 39.79 286.99 39.79 255.87C39.79 224.24 66.54 198.52 99.41 198.52C132.28 198.52 158.98 224.28 158.98 255.87H158.99Z" fill="#FFFFFF"/>
</svg>
