<svg width="400" height="400" viewBox="0 0 400 400" fill="none" xmlns="http://www.w3.org/2000/svg">
<path d="M400 359.26H0V399.26H400V359.26Z" fill="#FFFFFF"/>
<path d="M400 261.29V301.29H224.76V258.21C251.059 252.129 274.2 236.584 289.773 214.537C305.346 192.49 312.261 165.483 309.201 138.665C306.141 111.846 293.32 87.0919 273.18 69.1199C253.041 51.1479 226.992 41.2152 200 41.2152C173.008 41.2152 146.959 51.1479 126.82 69.1199C106.68 87.0919 93.8587 111.846 90.7986 138.665C87.7385 165.483 94.6541 192.49 110.227 214.537C125.8 236.584 148.941 252.129 175.24 258.21V301.29H0V261.29H98.34C76.1428 240.831 60.6351 214.15 53.8444 184.736C47.0537 155.322 49.296 124.544 60.2781 96.4247C71.2602 68.3055 90.471 44.1542 115.399 27.1282C140.327 10.1022 169.812 0.993774 200 0.993774C230.188 0.993774 259.673 10.1022 284.601 27.1282C309.529 44.1542 328.74 68.3055 339.722 96.4247C350.704 124.544 352.946 155.322 346.156 184.736C339.365 214.15 323.857 240.831 301.66 261.29H400Z" fill="#FFFFFF"/>
</svg>
