<svg width="397" height="404" viewBox="0 0 397 404" fill="none" xmlns="http://www.w3.org/2000/svg">
<path d="M396.61 364.06L387.83 403.06C345.461 393.429 307.193 370.72 278.44 338.144C249.687 305.569 231.905 264.777 227.61 221.54H169.01C165.038 261.396 149.618 299.252 124.61 330.54C95.3116 367.12 54.4808 392.691 8.78 403.08L0 364.08C68.74 348.54 120.28 290.3 128.76 221.54H48.61V181.54H128.76C120.28 112.78 68.76 54.54 0 39.02L8.78 0.0200005C54.4849 10.4171 95.3163 35.9988 124.61 72.59C149.61 103.88 165.023 141.736 168.99 181.59H227.61C231.891 138.342 249.665 97.5354 278.417 64.9463C307.169 32.3573 345.442 9.63655 387.82 0L396.6 39C327.86 54.54 276.32 112.78 267.84 181.54H348.61V221.54H267.84C276.32 290.3 327.86 348.54 396.61 364.06Z" fill="#FFFFFF"/>
</svg>
