<svg width="400" height="403" viewBox="0 0 400 403" fill="none" xmlns="http://www.w3.org/2000/svg">
<path d="M345.27 402.22V381.22C325.801 379.607 307.61 370.875 294.174 356.694C280.738 342.513 273.001 323.877 272.44 304.35L272.38 302.21L271.87 283.28V73.81C271.87 55.81 256.61 41.11 237.87 41.11C219.13 41.11 203.87 55.78 203.87 73.81V302.22H163.33V73.81C163.33 55.81 148.08 41.11 129.33 41.11C110.58 41.11 95.39 55.73 95.33 73.71V302.11H55.33V73.71C55.33 55.71 40.07 41 21.33 41C17.9453 40.9936 14.5773 41.4753 11.33 42.43L0 4.06996C13.1905 0.1709 27.1993 -0.0256834 40.494 3.50171C53.7887 7.0291 65.8574 14.1446 75.38 24.07C82.3884 16.7693 90.8059 10.9674 100.123 7.01569C109.439 3.06397 119.461 1.04472 129.581 1.08024C139.701 1.11577 149.709 3.20535 158.998 7.22238C168.286 11.2394 176.663 17.1003 183.62 24.45C190.59 17.0585 199 11.174 208.332 7.15964C217.665 3.14531 227.721 1.08638 237.88 1.10996C278.69 1.10996 311.88 33.72 311.88 73.81V282.86L312.44 303.27C312.703 312.384 316.121 321.125 322.11 328C328.099 334.875 336.288 339.459 345.28 340.97V321.83L371.16 340.97L372.35 341.85L399.62 362.03L345.27 402.22Z" fill="#FFFFFF"/>
</svg>
