<svg width="401" height="401" viewBox="0 0 401 401" fill="none" xmlns="http://www.w3.org/2000/svg">
<path d="M338.26 16.63C314.47 30.51 303.36 49.12 293.56 65.55C286.41 77.55 280.24 87.86 269.56 96.55C254.87 108.55 234.39 114.55 208.63 114.3C205.79 114.127 202.93 114.04 200.05 114.04C197.17 114.04 194.3 114.13 191.46 114.3C165.7 114.54 145.23 108.58 130.54 96.55C119.9 87.82 113.73 77.48 106.54 65.55C96.74 49.13 85.63 30.55 61.84 16.63C43.97 6.15999 23.09 0.919986 0 0.999986L0.18 41H0.650002C16.35 41 30.19 44.43 41.77 51.19C56.65 59.87 63.54 71.42 72.27 86.04C80.19 99.32 89.17 114.37 105.27 127.52C110.102 131.484 115.271 135.018 120.72 138.08C95.1057 155.128 75.658 179.968 65.2531 208.924C54.8482 237.881 54.0386 269.417 62.944 298.869C71.8493 328.322 89.9968 354.126 114.703 372.466C139.408 390.807 169.361 400.709 200.13 400.709C230.899 400.709 260.852 390.807 285.557 372.466C310.263 354.126 328.411 328.322 337.316 298.869C346.221 269.417 345.412 237.881 335.007 208.924C324.602 179.968 305.154 155.128 279.54 138.08C284.984 135.011 290.153 131.478 294.99 127.52C311.05 114.37 319.99 99.32 327.99 86.05C336.72 71.42 343.61 59.87 358.49 51.19C370.09 44.36 384.09 40.93 400 41L400.18 0.999986C377.02 0.879986 356.21 6.15999 338.26 16.63ZM303.41 257.4C303.41 277.533 297.527 297.228 286.485 314.063C275.442 330.899 259.722 344.141 241.256 352.163C222.789 360.185 202.382 362.636 182.541 359.216C162.7 355.797 144.29 346.655 129.575 332.914C114.859 319.173 104.479 301.432 99.7103 281.871C94.9413 262.311 95.9912 241.783 102.731 222.811C109.471 203.839 121.607 187.25 137.647 175.082C153.688 162.914 172.934 155.698 193.02 154.32C195.29 154.17 197.57 154.08 199.88 154.08H200.3C202.61 154.08 204.89 154.17 207.16 154.32C233.266 156.141 257.712 167.789 275.572 186.917C293.433 206.044 303.38 231.23 303.41 257.4Z" fill="#FFFFFF"/>
</svg>
