<svg width="401" height="402" viewBox="0 0 401 402" fill="none" xmlns="http://www.w3.org/2000/svg">
<path d="M376.03 119.16C366.09 109.69 353.37 103.93 338.23 102.02L336.23 101.77L334.23 101.92C326.48 102.539 318.905 104.551 311.87 107.86V72.86C311.87 32.77 278.67 0.159998 237.87 0.159998C227.716 0.131367 217.664 2.18312 208.334 6.18871C199.004 10.1943 190.593 16.0688 183.62 23.45C176.661 16.106 168.283 10.2509 158.995 6.2392C149.706 2.22747 139.7 0.142598 129.583 0.110811C119.465 0.0790239 109.446 2.10099 100.133 6.05427C90.8196 10.0076 82.4055 15.8099 75.4 23.11C65.8774 13.1846 53.8087 6.06914 40.514 2.54175C27.2193 -0.985644 13.2105 -0.789061 0.0200195 3.11L11.33 41.43C14.5773 40.4753 17.9453 39.9937 21.33 40C40.08 40 55.33 54.67 55.33 72.71V301.11H95.33V72.71C95.39 54.71 110.61 40.11 129.33 40.11C148.05 40.11 163.33 54.78 163.33 72.81V301.22H203.86V72.81C203.86 54.81 219.11 40.11 237.86 40.11C256.61 40.11 271.86 54.78 271.86 72.81V282.96C271.928 303.177 277.105 323.05 286.91 340.73C267.199 353.842 244.149 361.042 220.48 361.48L221.16 401.48C253.798 400.885 285.517 390.569 312.26 371.85C324.441 382.364 338.646 390.273 354 395.09L365.82 356.87C357.323 354.201 349.35 350.087 342.25 344.71C355.094 329.869 365.512 313.092 373.12 295C389.4 260.47 398.69 226 399.97 195.32C401.38 161.76 393.1 135.42 376.03 119.16ZM336.8 278.22L336.47 278.96C331.544 290.704 325.143 301.773 317.42 311.9C313.777 302.664 311.895 292.828 311.87 282.9V171.88H312.06C312.28 168.51 313.66 156.88 322.06 148.8C325.694 145.225 330.342 142.857 335.37 142.02C340.9 143.02 345.2 145.02 348.46 148.12C365.36 164.22 365.62 217.31 336.8 278.22Z" fill="#FFFFFF"/>
</svg>
