<svg width="500" height="500" viewBox="0 0 500 500" fill="none" xmlns="http://www.w3.org/2000/svg">
<g filter="url(#filter0_d)">
<path d="M324.7 196.75C322.982 197.306 321.484 198.393 320.422 199.853C319.36 201.314 318.789 203.074 318.79 204.88V204.88C317.731 203.419 316.236 202.331 314.52 201.773C312.805 201.214 310.956 201.213 309.24 201.77V201.77C310.286 200.313 310.849 198.564 310.849 196.77C310.849 194.976 310.286 193.227 309.24 191.77V191.77C310.955 192.329 312.803 192.331 314.519 191.774C316.235 191.217 317.73 190.13 318.79 188.67C318.792 190.475 319.364 192.234 320.426 193.694C321.487 195.154 322.983 196.241 324.7 196.8V196.75Z" fill="white"/>
<path d="M426.7 180.51C424.983 181.069 423.487 182.156 422.426 183.616C421.364 185.076 420.792 186.835 420.79 188.64C419.73 187.18 418.235 186.093 416.519 185.536C414.803 184.979 412.955 184.98 411.24 185.54C412.286 184.083 412.849 182.334 412.849 180.54C412.849 178.746 412.286 176.997 411.24 175.54C412.956 176.097 414.805 176.096 416.52 175.537C418.236 174.979 419.731 173.891 420.79 172.43C420.789 174.236 421.36 175.996 422.422 177.457C423.484 178.917 424.982 180.004 426.7 180.56V180.51Z" fill="white"/>
<path d="M398.59 342.84C396.872 343.396 395.374 344.483 394.312 345.943C393.25 347.404 392.679 349.164 392.68 350.97V350.97C391.621 349.509 390.126 348.421 388.41 347.863C386.695 347.304 384.846 347.303 383.13 347.86C384.177 346.403 384.74 344.654 384.74 342.86C384.74 341.066 384.177 339.317 383.13 337.86V337.86C384.845 338.42 386.693 338.421 388.409 337.864C390.125 337.307 391.62 336.22 392.68 334.76V334.76C392.682 336.565 393.255 338.324 394.316 339.784C395.378 341.244 396.873 342.331 398.59 342.89V342.84Z" fill="white"/>
<path d="M383.65 146.59C381.988 147.291 380.59 148.499 379.654 150.042C378.719 151.584 378.294 153.382 378.44 155.18C377.262 153.813 375.68 152.854 373.923 152.443C372.165 152.031 370.323 152.188 368.66 152.89V152.89C369.59 151.347 370.011 149.551 369.862 147.756C369.713 145.961 369.002 144.258 367.83 142.89V142.89C369.587 143.305 371.429 143.151 373.093 142.452C374.757 141.753 376.156 140.545 377.09 139V139C377.242 140.798 377.958 142.502 379.136 143.869C380.314 145.235 381.894 146.195 383.65 146.61V146.59Z" fill="white"/>
<path d="M188.96 262.53C187.294 263.226 185.893 264.433 184.956 265.977C184.02 267.52 183.598 269.321 183.75 271.12C182.57 269.753 180.987 268.794 179.228 268.381C177.47 267.968 175.626 268.121 173.96 268.82C174.895 267.279 175.318 265.481 175.168 263.685C175.019 261.889 174.306 260.186 173.13 258.82V258.82C174.886 259.23 176.727 259.074 178.39 258.376C180.053 257.677 181.453 256.471 182.39 254.93C182.541 256.73 183.258 258.435 184.438 259.803C185.619 261.17 187.201 262.128 188.96 262.54V262.53Z" fill="white"/>
<path d="M89.8301 352.76C88.1644 353.456 86.7624 354.663 85.8262 356.207C84.8899 357.75 84.4675 359.551 84.6199 361.35V361.35C83.4385 359.984 81.856 359.026 80.0979 358.613C78.3398 358.2 76.4961 358.353 74.8301 359.05V359.05C75.7647 357.509 76.1877 355.711 76.0386 353.915C75.8895 352.119 75.1759 350.416 74 349.05C75.7565 349.465 77.5992 349.311 79.2632 348.612C80.9271 347.913 82.3265 346.705 83.26 345.16C83.411 346.96 84.1281 348.666 85.3083 350.033C86.4886 351.4 88.0716 352.358 89.8301 352.77V352.76Z" fill="white"/>
<path d="M200.21 330.84C198.547 331.543 197.148 332.753 196.213 334.297C195.277 335.841 194.853 337.641 195 339.44V339.44C193.824 338.07 192.243 337.108 190.485 336.695C188.727 336.282 186.883 336.437 185.22 337.14C186.153 335.598 186.575 333.801 186.426 332.005C186.277 330.209 185.564 328.507 184.39 327.14C186.146 327.555 187.989 327.401 189.653 326.702C191.317 326.003 192.716 324.795 193.65 323.25V323.25C193.8 325.048 194.516 326.753 195.694 328.12C196.872 329.487 198.453 330.446 200.21 330.86V330.84Z" fill="white"/>
<path d="M383.96 275.23C383.117 276.827 382.801 278.65 383.058 280.437C383.315 282.225 384.131 283.885 385.39 285.18V285.18C383.614 284.878 381.789 285.143 380.173 285.938C378.557 286.734 377.233 288.019 376.39 289.61V289.61C376.133 287.824 375.317 286.166 374.06 284.872C372.802 283.579 371.167 282.717 369.39 282.41V282.41C371.008 281.611 372.333 280.321 373.175 278.725C374.017 277.128 374.334 275.307 374.08 273.52C375.338 274.815 376.973 275.678 378.752 275.985C380.53 276.292 382.361 276.028 383.98 275.23H383.96Z" fill="white"/>
<path d="M325.09 235.99C324.05 237.453 323.497 239.205 323.508 241C323.518 242.794 324.093 244.54 325.15 245.99V245.99C323.43 245.444 321.581 245.457 319.869 246.026C318.157 246.595 316.67 247.693 315.62 249.16V249.16C315.603 247.35 315.014 245.593 313.936 244.139C312.858 242.686 311.346 241.611 309.62 241.07C311.331 240.499 312.819 239.401 313.87 237.934C314.92 236.466 315.48 234.705 315.47 232.9V232.9C316.545 234.347 318.052 235.417 319.772 235.956C321.493 236.495 323.341 236.475 325.05 235.9L325.09 235.99Z" fill="white"/>
</g>
<g opacity="0.2">
<path d="M77.8696 355.23L179.23 261.67H179.53L317.96 239.33L318.29 239.55L379.79 280.37L379.87 280.79L391.46 344.79L192.26 331.73L77.8696 355.23ZM180.15 263.56L84.5498 351.81L192.07 329.81H192.21L388.97 342.71L377.96 281.61L317.5 241.48L180.15 263.56Z" fill="white"/>
<path d="M316.67 240.44L316.12 195.05L316.49 194.74L376.11 144.97L420.03 180.12L418.78 181.69L376.13 147.58L318.15 195.98L318.68 240.42L316.67 240.44Z" fill="white"/>
</g>
<defs>
<filter id="filter0_d" x="66" y="131" width="372.7" height="242.35" filterUnits="userSpaceOnUse" color-interpolation-filters="sRGB">
<feFlood flood-opacity="0" result="BackgroundImageFix"/>
<feColorMatrix in="SourceAlpha" type="matrix" values="0 0 0 0 0 0 0 0 0 0 0 0 0 0 0 0 0 0 127 0" result="hardAlpha"/>
<feOffset dx="2" dy="2"/>
<feGaussianBlur stdDeviation="5"/>
<feComposite in2="hardAlpha" operator="out"/>
<feColorMatrix type="matrix" values="0 0 0 0 1 0 0 0 0 1 0 0 0 0 1 0 0 0 0.25 0"/>
<feBlend mode="normal" in2="BackgroundImageFix" result="effect1_dropShadow"/>
<feBlend mode="normal" in="SourceGraphic" in2="effect1_dropShadow" result="shape"/>
</filter>
</defs>
</svg>
